<mxfile host="app.diagrams.net" agent="Mozilla/5.0 (Macintosh; Intel Mac OS X 10_15_7) AppleWebKit/537.36 (KHTML, like Gecko) Chrome/134.0.0.0 Safari/537.36" version="26.2.15">
  <diagram name="Page-1" id="9f46799a-70d6-7492-0946-bef42562c5a5">
    <mxGraphModel dx="5765" dy="3700" grid="1" gridSize="10" guides="1" tooltips="1" connect="1" arrows="1" fold="1" page="1" pageScale="1" pageWidth="1100" pageHeight="850" background="light-dark(#FFFFFF,#FFFFFF)" math="0" shadow="0">
      <root>
        <mxCell id="0" />
        <mxCell id="1" parent="0" />
        <mxCell id="K4WIt5_0rDEJ_HHopJuA-2" value="&lt;font style=&quot;font-size: 24px;&quot;&gt;Homescreen&lt;/font&gt;" style="swimlane;whiteSpace=wrap;html=1;strokeColor=light-dark(#000000,#050505);strokeWidth=4;startSize=40;" vertex="1" parent="1">
          <mxGeometry x="-1510" y="-530" width="920" height="520" as="geometry" />
        </mxCell>
        <mxCell id="K4WIt5_0rDEJ_HHopJuA-4" value="" style="rounded=0;whiteSpace=wrap;html=1;strokeColor=#BAC8D3;fontColor=#EEEEEE;fillColor=light-dark(#09555B,#99FF99);" vertex="1" parent="K4WIt5_0rDEJ_HHopJuA-2">
          <mxGeometry x="45" y="70" width="250" height="130" as="geometry" />
        </mxCell>
        <mxCell id="K4WIt5_0rDEJ_HHopJuA-13" value="Start Game" style="text;html=1;align=center;verticalAlign=middle;whiteSpace=wrap;rounded=0;fontColor=#EEEEEE;fontSize=35;fillColor=light-dark(#09555B,#99FF99);" vertex="1" parent="K4WIt5_0rDEJ_HHopJuA-2">
          <mxGeometry x="75" y="120" width="190" height="30" as="geometry" />
        </mxCell>
        <mxCell id="K4WIt5_0rDEJ_HHopJuA-99" value="" style="rounded=0;whiteSpace=wrap;html=1;strokeColor=#BAC8D3;fontColor=#EEEEEE;fillColor=light-dark(#09555B,#99FF99);" vertex="1" parent="K4WIt5_0rDEJ_HHopJuA-2">
          <mxGeometry x="335" y="70" width="250" height="130" as="geometry" />
        </mxCell>
        <mxCell id="K4WIt5_0rDEJ_HHopJuA-100" value="Test World" style="text;html=1;align=center;verticalAlign=middle;whiteSpace=wrap;rounded=0;fontColor=#EEEEEE;fontSize=35;fillColor=light-dark(#09555B,#99FF99);" vertex="1" parent="K4WIt5_0rDEJ_HHopJuA-2">
          <mxGeometry x="365" y="120" width="190" height="30" as="geometry" />
        </mxCell>
        <mxCell id="K4WIt5_0rDEJ_HHopJuA-132" value="" style="rounded=0;whiteSpace=wrap;html=1;strokeColor=#BAC8D3;fontColor=#EEEEEE;fillColor=light-dark(#09555B,#FFFF99);" vertex="1" parent="K4WIt5_0rDEJ_HHopJuA-2">
          <mxGeometry x="625" y="70" width="250" height="130" as="geometry" />
        </mxCell>
        <mxCell id="K4WIt5_0rDEJ_HHopJuA-133" value="Exit Program" style="text;html=1;align=center;verticalAlign=middle;whiteSpace=wrap;rounded=0;fontColor=#EEEEEE;fontSize=35;fillColor=light-dark(#09555B,#FFFF99);" vertex="1" parent="K4WIt5_0rDEJ_HHopJuA-2">
          <mxGeometry x="655" y="120" width="190" height="30" as="geometry" />
        </mxCell>
        <mxCell id="K4WIt5_0rDEJ_HHopJuA-6" value="&lt;font&gt;Multiplayer Game Screen&lt;/font&gt;" style="swimlane;whiteSpace=wrap;html=1;strokeWidth=4;strokeColor=light-dark(#000000,#000000);fontSize=15;" vertex="1" parent="1">
          <mxGeometry x="-460" y="-470" width="490" height="330" as="geometry" />
        </mxCell>
        <mxCell id="K4WIt5_0rDEJ_HHopJuA-10" value="" style="rounded=0;whiteSpace=wrap;html=1;strokeColor=#BAC8D3;fontColor=#EEEEEE;fillColor=light-dark(#09555B,#99FF99);" vertex="1" parent="K4WIt5_0rDEJ_HHopJuA-6">
          <mxGeometry x="20" y="40" width="210" height="110" as="geometry" />
        </mxCell>
        <mxCell id="K4WIt5_0rDEJ_HHopJuA-11" value="Settings" style="text;html=1;align=center;verticalAlign=middle;whiteSpace=wrap;rounded=0;fontColor=#EEEEEE;fontSize=35;fillColor=light-dark(#09555B,#99FF99);" vertex="1" parent="K4WIt5_0rDEJ_HHopJuA-6">
          <mxGeometry x="95" y="80" width="60" height="30" as="geometry" />
        </mxCell>
        <mxCell id="K4WIt5_0rDEJ_HHopJuA-15" value="&lt;font&gt;Escape Menu&lt;/font&gt;" style="swimlane;whiteSpace=wrap;html=1;strokeWidth=4;strokeColor=light-dark(#000000,#000000);fontSize=15;" vertex="1" parent="1">
          <mxGeometry x="100" y="-470" width="490" height="330" as="geometry" />
        </mxCell>
        <mxCell id="K4WIt5_0rDEJ_HHopJuA-16" value="" style="rounded=0;whiteSpace=wrap;html=1;strokeColor=#BAC8D3;fontColor=#EEEEEE;fillColor=light-dark(#09555B,#99FF99);" vertex="1" parent="K4WIt5_0rDEJ_HHopJuA-15">
          <mxGeometry x="20" y="40" width="210" height="110" as="geometry" />
        </mxCell>
        <mxCell id="K4WIt5_0rDEJ_HHopJuA-17" value="Resume" style="text;html=1;align=center;verticalAlign=middle;whiteSpace=wrap;rounded=0;fontColor=#EEEEEE;fontSize=35;fillColor=light-dark(#09555B,#99FF99);" vertex="1" parent="K4WIt5_0rDEJ_HHopJuA-15">
          <mxGeometry x="95" y="80" width="60" height="30" as="geometry" />
        </mxCell>
        <mxCell id="K4WIt5_0rDEJ_HHopJuA-21" value="" style="rounded=0;whiteSpace=wrap;html=1;strokeColor=#BAC8D3;fontColor=#EEEEEE;fillColor=light-dark(#09555B,#99FF99);" vertex="1" parent="K4WIt5_0rDEJ_HHopJuA-15">
          <mxGeometry x="260" y="40" width="210" height="110" as="geometry" />
        </mxCell>
        <mxCell id="K4WIt5_0rDEJ_HHopJuA-22" value="Quit" style="text;html=1;align=center;verticalAlign=middle;whiteSpace=wrap;rounded=0;fontColor=#EEEEEE;fontSize=35;fillColor=light-dark(#09555B,#99FF99);" vertex="1" parent="K4WIt5_0rDEJ_HHopJuA-15">
          <mxGeometry x="335" y="80" width="60" height="30" as="geometry" />
        </mxCell>
        <mxCell id="K4WIt5_0rDEJ_HHopJuA-25" value="" style="rounded=0;whiteSpace=wrap;html=1;strokeColor=#BAC8D3;fontColor=#EEEEEE;fillColor=light-dark(#09555B,#FFFF99);" vertex="1" parent="K4WIt5_0rDEJ_HHopJuA-15">
          <mxGeometry x="20" y="180" width="210" height="110" as="geometry" />
        </mxCell>
        <mxCell id="K4WIt5_0rDEJ_HHopJuA-26" value="Keybinds" style="text;html=1;align=center;verticalAlign=middle;whiteSpace=wrap;rounded=0;fontColor=#EEEEEE;fontSize=35;fillColor=light-dark(#09555B,#FFFF99);" vertex="1" parent="K4WIt5_0rDEJ_HHopJuA-15">
          <mxGeometry x="95" y="220" width="60" height="30" as="geometry" />
        </mxCell>
        <mxCell id="K4WIt5_0rDEJ_HHopJuA-27" value="" style="rounded=0;whiteSpace=wrap;html=1;strokeColor=#BAC8D3;fontColor=#EEEEEE;fillColor=light-dark(#09555B,#FFFF99);" vertex="1" parent="K4WIt5_0rDEJ_HHopJuA-15">
          <mxGeometry x="260" y="180" width="210" height="110" as="geometry" />
        </mxCell>
        <mxCell id="K4WIt5_0rDEJ_HHopJuA-28" value="Game Settings" style="text;html=1;align=center;verticalAlign=middle;whiteSpace=wrap;rounded=0;fontColor=#EEEEEE;fontSize=35;fillColor=light-dark(#09555B,#FFFF99);" vertex="1" parent="K4WIt5_0rDEJ_HHopJuA-15">
          <mxGeometry x="335" y="220" width="60" height="30" as="geometry" />
        </mxCell>
        <mxCell id="K4WIt5_0rDEJ_HHopJuA-23" style="edgeStyle=orthogonalEdgeStyle;rounded=0;orthogonalLoop=1;jettySize=auto;html=1;entryX=0.5;entryY=0;entryDx=0;entryDy=0;strokeColor=light-dark(#000000,#000000);strokeWidth=8;" edge="1" parent="1" source="K4WIt5_0rDEJ_HHopJuA-16" target="K4WIt5_0rDEJ_HHopJuA-6">
          <mxGeometry relative="1" as="geometry">
            <Array as="points">
              <mxPoint x="230" y="-540" />
              <mxPoint x="-215" y="-540" />
            </Array>
          </mxGeometry>
        </mxCell>
        <mxCell id="K4WIt5_0rDEJ_HHopJuA-24" style="edgeStyle=orthogonalEdgeStyle;rounded=0;orthogonalLoop=1;jettySize=auto;html=1;strokeColor=light-dark(#0B4D6A,#000000);strokeWidth=8;" edge="1" parent="1" source="K4WIt5_0rDEJ_HHopJuA-21">
          <mxGeometry relative="1" as="geometry">
            <mxPoint x="-1050" y="-530" as="targetPoint" />
            <Array as="points">
              <mxPoint x="620" y="-375" />
              <mxPoint x="620" y="-600" />
              <mxPoint x="-1050" y="-600" />
            </Array>
          </mxGeometry>
        </mxCell>
        <mxCell id="K4WIt5_0rDEJ_HHopJuA-29" value="&lt;font&gt;Keybinds Menu&lt;/font&gt;" style="swimlane;whiteSpace=wrap;html=1;strokeWidth=4;strokeColor=light-dark(#000000,#000000);fontSize=15;" vertex="1" parent="1">
          <mxGeometry x="700" y="-470" width="580" height="330" as="geometry" />
        </mxCell>
        <mxCell id="K4WIt5_0rDEJ_HHopJuA-38" value="&lt;font style=&quot;font-size: 24px;&quot;&gt;Forward&lt;/font&gt;" style="rounded=0;whiteSpace=wrap;html=1;strokeColor=#BAC8D3;fontColor=#EEEEEE;fillColor=light-dark(#09555B,#FFFF99);" vertex="1" parent="K4WIt5_0rDEJ_HHopJuA-29">
          <mxGeometry x="20" y="40" width="120" height="60" as="geometry" />
        </mxCell>
        <mxCell id="K4WIt5_0rDEJ_HHopJuA-39" value="&lt;font style=&quot;font-size: 24px;&quot;&gt;Back&lt;/font&gt;" style="rounded=0;whiteSpace=wrap;html=1;strokeColor=#BAC8D3;fontColor=#EEEEEE;fillColor=light-dark(#09555B,#FFFF99);" vertex="1" parent="K4WIt5_0rDEJ_HHopJuA-29">
          <mxGeometry x="160" y="40" width="120" height="60" as="geometry" />
        </mxCell>
        <mxCell id="K4WIt5_0rDEJ_HHopJuA-40" value="&lt;font style=&quot;font-size: 24px;&quot;&gt;Left&lt;/font&gt;" style="rounded=0;whiteSpace=wrap;html=1;strokeColor=#BAC8D3;fontColor=#EEEEEE;fillColor=light-dark(#09555B,#FFFF99);" vertex="1" parent="K4WIt5_0rDEJ_HHopJuA-29">
          <mxGeometry x="300" y="40" width="120" height="60" as="geometry" />
        </mxCell>
        <mxCell id="K4WIt5_0rDEJ_HHopJuA-41" value="&lt;font style=&quot;font-size: 24px;&quot;&gt;Right&lt;/font&gt;" style="rounded=0;whiteSpace=wrap;html=1;strokeColor=#BAC8D3;fontColor=#EEEEEE;fillColor=light-dark(#09555B,#FFFF99);" vertex="1" parent="K4WIt5_0rDEJ_HHopJuA-29">
          <mxGeometry x="440" y="40" width="120" height="60" as="geometry" />
        </mxCell>
        <mxCell id="K4WIt5_0rDEJ_HHopJuA-42" value="&lt;font style=&quot;font-size: 24px;&quot;&gt;Jump&lt;/font&gt;" style="rounded=0;whiteSpace=wrap;html=1;strokeColor=#BAC8D3;fontColor=#EEEEEE;fillColor=light-dark(#09555B,#FFFF99);" vertex="1" parent="K4WIt5_0rDEJ_HHopJuA-29">
          <mxGeometry x="20" y="120" width="120" height="60" as="geometry" />
        </mxCell>
        <mxCell id="K4WIt5_0rDEJ_HHopJuA-43" value="&lt;font style=&quot;font-size: 24px;&quot;&gt;Crouch&lt;/font&gt;" style="rounded=0;whiteSpace=wrap;html=1;strokeColor=#BAC8D3;fontColor=#EEEEEE;fillColor=light-dark(#09555B,#FFFF99);" vertex="1" parent="K4WIt5_0rDEJ_HHopJuA-29">
          <mxGeometry x="160" y="120" width="120" height="60" as="geometry" />
        </mxCell>
        <mxCell id="K4WIt5_0rDEJ_HHopJuA-44" value="&lt;font style=&quot;font-size: 24px;&quot;&gt;Q.T&lt;/font&gt;" style="rounded=0;whiteSpace=wrap;html=1;strokeColor=#BAC8D3;fontColor=#EEEEEE;fillColor=light-dark(#09555B,#FFFF99);" vertex="1" parent="K4WIt5_0rDEJ_HHopJuA-29">
          <mxGeometry x="300" y="120" width="120" height="60" as="geometry" />
        </mxCell>
        <mxCell id="K4WIt5_0rDEJ_HHopJuA-45" value="&lt;font style=&quot;font-size: 24px;&quot;&gt;Charge&lt;/font&gt;" style="rounded=0;whiteSpace=wrap;html=1;strokeColor=#BAC8D3;fontColor=#EEEEEE;fillColor=light-dark(#09555B,#FFFF99);" vertex="1" parent="K4WIt5_0rDEJ_HHopJuA-29">
          <mxGeometry x="440" y="120" width="120" height="60" as="geometry" />
        </mxCell>
        <mxCell id="K4WIt5_0rDEJ_HHopJuA-108" value="&lt;font style=&quot;font-size: 24px;&quot;&gt;Return&lt;/font&gt;" style="rounded=0;whiteSpace=wrap;html=1;strokeColor=#BAC8D3;fontColor=#EEEEEE;fillColor=light-dark(#09555B,#99FF99);" vertex="1" parent="K4WIt5_0rDEJ_HHopJuA-29">
          <mxGeometry x="20" y="210" width="120" height="60" as="geometry" />
        </mxCell>
        <mxCell id="K4WIt5_0rDEJ_HHopJuA-47" style="edgeStyle=orthogonalEdgeStyle;rounded=0;orthogonalLoop=1;jettySize=auto;html=1;entryX=1;entryY=0.5;entryDx=0;entryDy=0;strokeColor=light-dark(#0B4D6A,#000000);strokeWidth=8;" edge="1" parent="1" source="K4WIt5_0rDEJ_HHopJuA-46" target="K4WIt5_0rDEJ_HHopJuA-45">
          <mxGeometry relative="1" as="geometry" />
        </mxCell>
        <mxCell id="K4WIt5_0rDEJ_HHopJuA-46" value="&lt;font style=&quot;font-size: 20px;&quot;&gt;I think that to throw, we should hold down a button to aim and stuff and then release to throw. Power would be determined by how long you are holding the button&lt;/font&gt;" style="text;html=1;align=center;verticalAlign=middle;whiteSpace=wrap;rounded=0;fontColor=#EEEEEE;" vertex="1" parent="1">
          <mxGeometry x="1370" y="-405" width="320" height="170" as="geometry" />
        </mxCell>
        <mxCell id="K4WIt5_0rDEJ_HHopJuA-50" value="&lt;font&gt;Game Settings&lt;/font&gt;" style="swimlane;whiteSpace=wrap;html=1;strokeWidth=4;strokeColor=light-dark(#000000,#000000);fontSize=15;" vertex="1" parent="1">
          <mxGeometry x="700" y="-50" width="580" height="350" as="geometry" />
        </mxCell>
        <mxCell id="K4WIt5_0rDEJ_HHopJuA-59" value="&lt;font style=&quot;font-size: 24px;&quot;&gt;Sensitivity&lt;/font&gt;" style="rounded=0;whiteSpace=wrap;html=1;strokeColor=#BAC8D3;fontColor=#EEEEEE;fillColor=light-dark(#09555B,#FFFF99);" vertex="1" parent="K4WIt5_0rDEJ_HHopJuA-50">
          <mxGeometry x="20" y="40" width="120" height="60" as="geometry" />
        </mxCell>
        <mxCell id="K4WIt5_0rDEJ_HHopJuA-60" value="&lt;font style=&quot;font-size: 24px;&quot;&gt;Volume&lt;/font&gt;" style="rounded=0;whiteSpace=wrap;html=1;strokeColor=#BAC8D3;fontColor=#EEEEEE;fillColor=light-dark(#09555B,#FFFF99);" vertex="1" parent="K4WIt5_0rDEJ_HHopJuA-50">
          <mxGeometry x="160" y="40" width="120" height="60" as="geometry" />
        </mxCell>
        <mxCell id="K4WIt5_0rDEJ_HHopJuA-69" value="&lt;font style=&quot;font-size: 24px;&quot;&gt;FOV&lt;/font&gt;" style="rounded=0;whiteSpace=wrap;html=1;strokeColor=#BAC8D3;fontColor=#EEEEEE;fillColor=light-dark(#09555B,#FF6666);" vertex="1" parent="K4WIt5_0rDEJ_HHopJuA-50">
          <mxGeometry x="20" y="120" width="120" height="60" as="geometry" />
        </mxCell>
        <mxCell id="K4WIt5_0rDEJ_HHopJuA-70" value="&lt;font style=&quot;font-size: 24px;&quot;&gt;Resolution&lt;/font&gt;" style="rounded=0;whiteSpace=wrap;html=1;strokeColor=#BAC8D3;fontColor=#EEEEEE;fillColor=light-dark(#09555B,#FF6666);" vertex="1" parent="K4WIt5_0rDEJ_HHopJuA-50">
          <mxGeometry x="160" y="120" width="120" height="60" as="geometry" />
        </mxCell>
        <mxCell id="K4WIt5_0rDEJ_HHopJuA-71" value="&lt;font style=&quot;font-size: 24px;&quot;&gt;Graphics&lt;/font&gt;" style="rounded=0;whiteSpace=wrap;html=1;strokeColor=#BAC8D3;fontColor=#EEEEEE;fillColor=light-dark(#09555B,#FF6666);" vertex="1" parent="K4WIt5_0rDEJ_HHopJuA-50">
          <mxGeometry x="300" y="120" width="120" height="60" as="geometry" />
        </mxCell>
        <mxCell id="K4WIt5_0rDEJ_HHopJuA-72" value="&lt;font style=&quot;font-size: 24px;&quot;&gt;Other&lt;/font&gt;" style="rounded=0;whiteSpace=wrap;html=1;strokeColor=#BAC8D3;fontColor=#EEEEEE;fillColor=light-dark(#09555B,#FF6666);" vertex="1" parent="K4WIt5_0rDEJ_HHopJuA-50">
          <mxGeometry x="440" y="120" width="120" height="60" as="geometry" />
        </mxCell>
        <mxCell id="K4WIt5_0rDEJ_HHopJuA-129" value="&lt;font style=&quot;font-size: 24px;&quot;&gt;Return&lt;/font&gt;" style="rounded=0;whiteSpace=wrap;html=1;strokeColor=#BAC8D3;fontColor=#EEEEEE;fillColor=light-dark(#09555B,#99FF99);" vertex="1" parent="K4WIt5_0rDEJ_HHopJuA-50">
          <mxGeometry x="20" y="210" width="120" height="60" as="geometry" />
        </mxCell>
        <mxCell id="K4WIt5_0rDEJ_HHopJuA-65" style="edgeStyle=orthogonalEdgeStyle;rounded=0;orthogonalLoop=1;jettySize=auto;html=1;entryX=0.5;entryY=0;entryDx=0;entryDy=0;strokeColor=light-dark(#0B4D6A,#000000);strokeWidth=8;" edge="1" parent="1" source="K4WIt5_0rDEJ_HHopJuA-27" target="K4WIt5_0rDEJ_HHopJuA-50">
          <mxGeometry relative="1" as="geometry">
            <Array as="points">
              <mxPoint x="465" y="-100" />
              <mxPoint x="990" y="-100" />
            </Array>
          </mxGeometry>
        </mxCell>
        <mxCell id="K4WIt5_0rDEJ_HHopJuA-68" style="edgeStyle=orthogonalEdgeStyle;rounded=0;orthogonalLoop=1;jettySize=auto;html=1;entryX=1;entryY=0.5;entryDx=0;entryDy=0;strokeColor=light-dark(#0B4D6A,#000000);strokeWidth=8;" edge="1" parent="1" source="K4WIt5_0rDEJ_HHopJuA-66" target="K4WIt5_0rDEJ_HHopJuA-60">
          <mxGeometry relative="1" as="geometry">
            <Array as="points">
              <mxPoint x="1260" y="20" />
              <mxPoint x="1260" y="20" />
            </Array>
          </mxGeometry>
        </mxCell>
        <mxCell id="K4WIt5_0rDEJ_HHopJuA-66" value="&lt;font style=&quot;font-size: 20px;&quot;&gt;Sensitivity, volume, and whatever else should probably be sliders&lt;/font&gt;&lt;div&gt;&lt;br&gt;&lt;/div&gt;" style="text;html=1;align=center;verticalAlign=middle;whiteSpace=wrap;rounded=0;fontColor=#EEEEEE;" vertex="1" parent="1">
          <mxGeometry x="1310" y="-5" width="240" height="50" as="geometry" />
        </mxCell>
        <mxCell id="K4WIt5_0rDEJ_HHopJuA-75" style="edgeStyle=orthogonalEdgeStyle;rounded=0;orthogonalLoop=1;jettySize=auto;html=1;entryX=0;entryY=0.5;entryDx=0;entryDy=0;strokeColor=light-dark(#0B4D6A,#000000);strokeWidth=8;" edge="1" parent="1" source="K4WIt5_0rDEJ_HHopJuA-10" target="K4WIt5_0rDEJ_HHopJuA-15">
          <mxGeometry relative="1" as="geometry">
            <Array as="points">
              <mxPoint x="-335" y="-305" />
            </Array>
          </mxGeometry>
        </mxCell>
        <mxCell id="K4WIt5_0rDEJ_HHopJuA-76" value="&lt;font style=&quot;font-size: 24px;&quot;&gt;End Screen&lt;/font&gt;" style="swimlane;whiteSpace=wrap;html=1;strokeColor=light-dark(#000000,#050505);strokeWidth=4;startSize=40;" vertex="1" parent="1">
          <mxGeometry x="-1510" y="200" width="920" height="520" as="geometry" />
        </mxCell>
        <mxCell id="K4WIt5_0rDEJ_HHopJuA-77" value="" style="rounded=0;whiteSpace=wrap;html=1;strokeColor=#BAC8D3;fontColor=#EEEEEE;fillColor=light-dark(#09555B,#99FF99);" vertex="1" parent="K4WIt5_0rDEJ_HHopJuA-76">
          <mxGeometry x="30" y="70" width="250" height="130" as="geometry" />
        </mxCell>
        <mxCell id="K4WIt5_0rDEJ_HHopJuA-78" value="Leave Game" style="text;html=1;align=center;verticalAlign=middle;whiteSpace=wrap;rounded=0;fontColor=#EEEEEE;fontSize=35;fillColor=light-dark(#09555B,#99FF99);" vertex="1" parent="K4WIt5_0rDEJ_HHopJuA-76">
          <mxGeometry x="60" y="120" width="190" height="30" as="geometry" />
        </mxCell>
        <mxCell id="K4WIt5_0rDEJ_HHopJuA-80" value="" style="rounded=0;whiteSpace=wrap;html=1;strokeColor=#BAC8D3;fontColor=#EEEEEE;fillColor=light-dark(#09555B,#99FF99);" vertex="1" parent="K4WIt5_0rDEJ_HHopJuA-76">
          <mxGeometry x="310" y="70" width="250" height="130" as="geometry" />
        </mxCell>
        <mxCell id="K4WIt5_0rDEJ_HHopJuA-81" value="Play Again" style="text;html=1;align=center;verticalAlign=middle;whiteSpace=wrap;rounded=0;fontColor=#EEEEEE;fontSize=35;fillColor=light-dark(#09555B,#99FF99);" vertex="1" parent="K4WIt5_0rDEJ_HHopJuA-76">
          <mxGeometry x="340" y="120" width="190" height="30" as="geometry" />
        </mxCell>
        <mxCell id="K4WIt5_0rDEJ_HHopJuA-79" style="edgeStyle=orthogonalEdgeStyle;rounded=0;orthogonalLoop=1;jettySize=auto;html=1;entryX=0.5;entryY=1;entryDx=0;entryDy=0;strokeColor=light-dark(#0B4D6A,#000000);strokeWidth=8;" edge="1" parent="1" source="K4WIt5_0rDEJ_HHopJuA-77" target="K4WIt5_0rDEJ_HHopJuA-2">
          <mxGeometry relative="1" as="geometry">
            <Array as="points">
              <mxPoint x="-1355" y="100" />
              <mxPoint x="-1050" y="100" />
            </Array>
          </mxGeometry>
        </mxCell>
        <mxCell id="K4WIt5_0rDEJ_HHopJuA-82" style="edgeStyle=orthogonalEdgeStyle;rounded=0;orthogonalLoop=1;jettySize=auto;html=1;entryX=0.5;entryY=1;entryDx=0;entryDy=0;strokeColor=light-dark(#0B4D6A,#000000);strokeWidth=8;" edge="1" parent="1" source="K4WIt5_0rDEJ_HHopJuA-80" target="K4WIt5_0rDEJ_HHopJuA-86">
          <mxGeometry relative="1" as="geometry">
            <Array as="points">
              <mxPoint x="-1075" y="420" />
              <mxPoint x="-550" y="420" />
              <mxPoint x="-550" y="-560" />
              <mxPoint x="-640" y="-560" />
            </Array>
          </mxGeometry>
        </mxCell>
        <mxCell id="K4WIt5_0rDEJ_HHopJuA-98" style="edgeStyle=orthogonalEdgeStyle;rounded=0;orthogonalLoop=1;jettySize=auto;html=1;entryX=0.5;entryY=0;entryDx=0;entryDy=0;strokeColor=light-dark(#0B4D6A,#000000);strokeWidth=8;" edge="1" parent="1" source="K4WIt5_0rDEJ_HHopJuA-86" target="K4WIt5_0rDEJ_HHopJuA-6">
          <mxGeometry relative="1" as="geometry">
            <Array as="points">
              <mxPoint x="-215" y="-815" />
            </Array>
          </mxGeometry>
        </mxCell>
        <mxCell id="K4WIt5_0rDEJ_HHopJuA-86" value="&lt;font&gt;Multiplayer Lobby&lt;/font&gt;" style="swimlane;whiteSpace=wrap;html=1;strokeWidth=4;strokeColor=light-dark(#000000,#000000);fontSize=15;" vertex="1" parent="1">
          <mxGeometry x="-930" y="-980" width="580" height="330" as="geometry" />
        </mxCell>
        <mxCell id="K4WIt5_0rDEJ_HHopJuA-87" value="&lt;font style=&quot;font-size: 24px;&quot;&gt;Player Count&lt;/font&gt;" style="rounded=0;whiteSpace=wrap;html=1;strokeColor=#BAC8D3;fontColor=#EEEEEE;fillColor=light-dark(#09555B,#FFFF99);" vertex="1" parent="K4WIt5_0rDEJ_HHopJuA-86">
          <mxGeometry x="20" y="40" width="120" height="60" as="geometry" />
        </mxCell>
        <mxCell id="K4WIt5_0rDEJ_HHopJuA-88" value="&lt;font style=&quot;font-size: 24px;&quot;&gt;Player List&lt;/font&gt;" style="rounded=0;whiteSpace=wrap;html=1;strokeColor=#BAC8D3;fontColor=#EEEEEE;fillColor=light-dark(#09555B,#FFFF99);" vertex="1" parent="K4WIt5_0rDEJ_HHopJuA-86">
          <mxGeometry x="160" y="40" width="120" height="60" as="geometry" />
        </mxCell>
        <mxCell id="K4WIt5_0rDEJ_HHopJuA-89" value="&lt;font style=&quot;font-size: 24px;&quot;&gt;Host&lt;/font&gt;" style="rounded=0;whiteSpace=wrap;html=1;strokeColor=#BAC8D3;fontColor=#EEEEEE;fillColor=light-dark(#09555B,#FFFF99);" vertex="1" parent="K4WIt5_0rDEJ_HHopJuA-86">
          <mxGeometry x="300" y="40" width="120" height="60" as="geometry" />
        </mxCell>
        <mxCell id="K4WIt5_0rDEJ_HHopJuA-90" value="&lt;font style=&quot;font-size: 24px;&quot;&gt;Map&lt;/font&gt;" style="rounded=0;whiteSpace=wrap;html=1;strokeColor=#BAC8D3;fontColor=#EEEEEE;fillColor=light-dark(#09555B,#FFFF99);" vertex="1" parent="K4WIt5_0rDEJ_HHopJuA-86">
          <mxGeometry x="440" y="40" width="120" height="60" as="geometry" />
        </mxCell>
        <mxCell id="K4WIt5_0rDEJ_HHopJuA-91" value="&lt;font style=&quot;font-size: 24px;&quot;&gt;Teams&lt;/font&gt;" style="rounded=0;whiteSpace=wrap;html=1;strokeColor=#BAC8D3;fontColor=#EEEEEE;fillColor=light-dark(#09555B,#FFFF99);" vertex="1" parent="K4WIt5_0rDEJ_HHopJuA-86">
          <mxGeometry x="20" y="120" width="120" height="60" as="geometry" />
        </mxCell>
        <mxCell id="K4WIt5_0rDEJ_HHopJuA-92" value="&lt;span style=&quot;font-size: 24px;&quot;&gt;Lobby Code&lt;/span&gt;" style="rounded=0;whiteSpace=wrap;html=1;strokeColor=#BAC8D3;fontColor=#EEEEEE;fillColor=light-dark(#09555B,#FF6666);" vertex="1" parent="K4WIt5_0rDEJ_HHopJuA-86">
          <mxGeometry x="160" y="120" width="120" height="60" as="geometry" />
        </mxCell>
        <mxCell id="K4WIt5_0rDEJ_HHopJuA-93" value="&lt;font style=&quot;font-size: 24px;&quot;&gt;Game Mode&lt;/font&gt;" style="rounded=0;whiteSpace=wrap;html=1;strokeColor=#BAC8D3;fontColor=#EEEEEE;fillColor=light-dark(#09555B,#FF6666);" vertex="1" parent="K4WIt5_0rDEJ_HHopJuA-86">
          <mxGeometry x="300" y="120" width="120" height="60" as="geometry" />
        </mxCell>
        <mxCell id="K4WIt5_0rDEJ_HHopJuA-94" value="&lt;span style=&quot;font-size: 24px;&quot;&gt;Skin Indicator&lt;/span&gt;" style="rounded=0;whiteSpace=wrap;html=1;strokeColor=#BAC8D3;fontColor=#EEEEEE;fillColor=light-dark(#09555B,#FF6666);" vertex="1" parent="K4WIt5_0rDEJ_HHopJuA-86">
          <mxGeometry x="440" y="120" width="120" height="60" as="geometry" />
        </mxCell>
        <mxCell id="K4WIt5_0rDEJ_HHopJuA-95" value="&lt;span style=&quot;font-size: 24px;&quot;&gt;Voice Chat Indicator&lt;/span&gt;" style="rounded=0;whiteSpace=wrap;html=1;strokeColor=#BAC8D3;fontColor=#EEEEEE;fillColor=light-dark(#09555B,#FF6666);" vertex="1" parent="K4WIt5_0rDEJ_HHopJuA-86">
          <mxGeometry x="20" y="200" width="120" height="60" as="geometry" />
        </mxCell>
        <mxCell id="K4WIt5_0rDEJ_HHopJuA-96" value="&lt;span style=&quot;font-size: 24px;&quot;&gt;Ready Status&lt;/span&gt;" style="rounded=0;whiteSpace=wrap;html=1;strokeColor=#BAC8D3;fontColor=#EEEEEE;fillColor=light-dark(#09555B,#FF6666);gradientColor=none;" vertex="1" parent="K4WIt5_0rDEJ_HHopJuA-86">
          <mxGeometry x="160" y="200" width="120" height="60" as="geometry" />
        </mxCell>
        <mxCell id="K4WIt5_0rDEJ_HHopJuA-97" style="edgeStyle=orthogonalEdgeStyle;rounded=0;orthogonalLoop=1;jettySize=auto;html=1;entryX=0;entryY=0.5;entryDx=0;entryDy=0;strokeColor=light-dark(#0B4D6A,#000000);strokeWidth=8;" edge="1" parent="1" source="K4WIt5_0rDEJ_HHopJuA-4" target="K4WIt5_0rDEJ_HHopJuA-86">
          <mxGeometry relative="1" as="geometry">
            <Array as="points">
              <mxPoint x="-1350" y="-815" />
            </Array>
          </mxGeometry>
        </mxCell>
        <mxCell id="K4WIt5_0rDEJ_HHopJuA-102" style="edgeStyle=orthogonalEdgeStyle;rounded=0;orthogonalLoop=1;jettySize=auto;html=1;entryX=0;entryY=0.5;entryDx=0;entryDy=0;strokeColor=light-dark(#0B4D6A,#000000);strokeWidth=8;" edge="1" parent="1" source="K4WIt5_0rDEJ_HHopJuA-25" target="K4WIt5_0rDEJ_HHopJuA-29">
          <mxGeometry relative="1" as="geometry">
            <Array as="points">
              <mxPoint x="225" y="-305" />
            </Array>
          </mxGeometry>
        </mxCell>
        <mxCell id="K4WIt5_0rDEJ_HHopJuA-106" style="edgeStyle=orthogonalEdgeStyle;rounded=0;orthogonalLoop=1;jettySize=auto;html=1;entryX=0;entryY=0.5;entryDx=0;entryDy=0;strokeColor=light-dark(#0B4D6A,#000000);strokeWidth=8;exitX=0.5;exitY=1;exitDx=0;exitDy=0;" edge="1" parent="1" source="K4WIt5_0rDEJ_HHopJuA-104" target="K4WIt5_0rDEJ_HHopJuA-15">
          <mxGeometry relative="1" as="geometry">
            <Array as="points">
              <mxPoint x="-335" y="415" />
              <mxPoint x="60" y="415" />
              <mxPoint x="60" y="-305" />
            </Array>
          </mxGeometry>
        </mxCell>
        <mxCell id="K4WIt5_0rDEJ_HHopJuA-103" value="&lt;font&gt;Test Game Screen&lt;/font&gt;" style="swimlane;whiteSpace=wrap;html=1;strokeWidth=4;strokeColor=light-dark(#000000,#000000);fontSize=15;" vertex="1" parent="1">
          <mxGeometry x="-460" y="250" width="490" height="330" as="geometry" />
        </mxCell>
        <mxCell id="K4WIt5_0rDEJ_HHopJuA-104" value="" style="rounded=0;whiteSpace=wrap;html=1;strokeColor=#BAC8D3;fontColor=#EEEEEE;fillColor=light-dark(#09555B,#99FF99);" vertex="1" parent="K4WIt5_0rDEJ_HHopJuA-103">
          <mxGeometry x="20" y="40" width="210" height="110" as="geometry" />
        </mxCell>
        <mxCell id="K4WIt5_0rDEJ_HHopJuA-105" value="Settings" style="text;html=1;align=center;verticalAlign=middle;whiteSpace=wrap;rounded=0;fontColor=#EEEEEE;fontSize=35;fillColor=light-dark(#09555B,#99FF99);" vertex="1" parent="K4WIt5_0rDEJ_HHopJuA-103">
          <mxGeometry x="95" y="80" width="60" height="30" as="geometry" />
        </mxCell>
        <mxCell id="K4WIt5_0rDEJ_HHopJuA-112" value="" style="rounded=0;whiteSpace=wrap;html=1;strokeColor=#BAC8D3;fontColor=#EEEEEE;fillColor=light-dark(#09555B,#99FF99);" vertex="1" parent="K4WIt5_0rDEJ_HHopJuA-103">
          <mxGeometry x="260" y="40" width="210" height="110" as="geometry" />
        </mxCell>
        <mxCell id="K4WIt5_0rDEJ_HHopJuA-113" value="Game Parameters" style="text;html=1;align=center;verticalAlign=middle;whiteSpace=wrap;rounded=0;fontColor=#EEEEEE;fontSize=35;fillColor=light-dark(#09555B,#99FF99);" vertex="1" parent="K4WIt5_0rDEJ_HHopJuA-103">
          <mxGeometry x="335" y="80" width="60" height="30" as="geometry" />
        </mxCell>
        <mxCell id="K4WIt5_0rDEJ_HHopJuA-115" value="&lt;font&gt;Parameters Menu&lt;/font&gt;" style="swimlane;whiteSpace=wrap;html=1;strokeWidth=4;strokeColor=light-dark(#000000,#000000);fontSize=15;" vertex="1" parent="1">
          <mxGeometry x="210" y="410" width="580" height="330" as="geometry" />
        </mxCell>
        <mxCell id="K4WIt5_0rDEJ_HHopJuA-116" value="&lt;font style=&quot;font-size: 24px;&quot;&gt;Map&lt;/font&gt;" style="rounded=0;whiteSpace=wrap;html=1;strokeColor=#BAC8D3;fontColor=#EEEEEE;fillColor=light-dark(#09555B,#99FF99);" vertex="1" parent="K4WIt5_0rDEJ_HHopJuA-115">
          <mxGeometry x="20" y="40" width="120" height="60" as="geometry" />
        </mxCell>
        <mxCell id="K4WIt5_0rDEJ_HHopJuA-117" value="&lt;font style=&quot;font-size: 24px;&quot;&gt;Throw Speed&lt;/font&gt;" style="rounded=0;whiteSpace=wrap;html=1;strokeColor=#BAC8D3;fontColor=#EEEEEE;fillColor=light-dark(#09555B,#99FF99);" vertex="1" parent="K4WIt5_0rDEJ_HHopJuA-115">
          <mxGeometry x="160" y="40" width="120" height="60" as="geometry" />
        </mxCell>
        <mxCell id="K4WIt5_0rDEJ_HHopJuA-118" value="&lt;font style=&quot;font-size: 24px;&quot;&gt;Player Limit&lt;/font&gt;" style="rounded=0;whiteSpace=wrap;html=1;strokeColor=#BAC8D3;fontColor=#EEEEEE;fillColor=light-dark(#09555B,#99FF99);" vertex="1" parent="K4WIt5_0rDEJ_HHopJuA-115">
          <mxGeometry x="300" y="40" width="120" height="60" as="geometry" />
        </mxCell>
        <mxCell id="K4WIt5_0rDEJ_HHopJuA-119" value="&lt;font style=&quot;font-size: 24px;&quot;&gt;Jump Height&lt;/font&gt;" style="rounded=0;whiteSpace=wrap;html=1;strokeColor=#BAC8D3;fontColor=#EEEEEE;fillColor=light-dark(#09555B,#99FF99);" vertex="1" parent="K4WIt5_0rDEJ_HHopJuA-115">
          <mxGeometry x="440" y="40" width="120" height="60" as="geometry" />
        </mxCell>
        <mxCell id="K4WIt5_0rDEJ_HHopJuA-120" value="&lt;font style=&quot;font-size: 24px;&quot;&gt;Time Limit&lt;/font&gt;" style="rounded=0;whiteSpace=wrap;html=1;strokeColor=#BAC8D3;fontColor=#EEEEEE;fillColor=light-dark(#09555B,#99FF99);" vertex="1" parent="K4WIt5_0rDEJ_HHopJuA-115">
          <mxGeometry x="20" y="120" width="120" height="60" as="geometry" />
        </mxCell>
        <mxCell id="K4WIt5_0rDEJ_HHopJuA-121" value="&lt;font style=&quot;font-size: 24px;&quot;&gt;Player Speed&lt;/font&gt;" style="rounded=0;whiteSpace=wrap;html=1;strokeColor=#BAC8D3;fontColor=#EEEEEE;fillColor=light-dark(#09555B,#99FF99);" vertex="1" parent="K4WIt5_0rDEJ_HHopJuA-115">
          <mxGeometry x="160" y="120" width="120" height="60" as="geometry" />
        </mxCell>
        <mxCell id="K4WIt5_0rDEJ_HHopJuA-122" value="&lt;font style=&quot;font-size: 24px;&quot;&gt;Accuracy&lt;/font&gt;" style="rounded=0;whiteSpace=wrap;html=1;strokeColor=#BAC8D3;fontColor=#EEEEEE;fillColor=light-dark(#09555B,#99FF99);" vertex="1" parent="K4WIt5_0rDEJ_HHopJuA-115">
          <mxGeometry x="300" y="120" width="120" height="60" as="geometry" />
        </mxCell>
        <mxCell id="K4WIt5_0rDEJ_HHopJuA-123" value="&lt;font style=&quot;font-size: 24px;&quot;&gt;Charge Speed&lt;/font&gt;" style="rounded=0;whiteSpace=wrap;html=1;strokeColor=#BAC8D3;fontColor=#EEEEEE;fillColor=light-dark(#09555B,#99FF99);" vertex="1" parent="K4WIt5_0rDEJ_HHopJuA-115">
          <mxGeometry x="440" y="120" width="120" height="60" as="geometry" />
        </mxCell>
        <mxCell id="K4WIt5_0rDEJ_HHopJuA-125" value="&lt;font style=&quot;font-size: 24px;&quot;&gt;Return&lt;/font&gt;" style="rounded=0;whiteSpace=wrap;html=1;strokeColor=#BAC8D3;fontColor=#EEEEEE;fillColor=light-dark(#09555B,#99FF99);" vertex="1" parent="K4WIt5_0rDEJ_HHopJuA-115">
          <mxGeometry x="20" y="210" width="120" height="60" as="geometry" />
        </mxCell>
        <mxCell id="K4WIt5_0rDEJ_HHopJuA-128" value="&lt;font style=&quot;font-size: 24px;&quot;&gt;Whatever Else&lt;/font&gt;" style="rounded=0;whiteSpace=wrap;html=1;strokeColor=#BAC8D3;fontColor=#EEEEEE;fillColor=light-dark(#09555B,#99FF99);" vertex="1" parent="K4WIt5_0rDEJ_HHopJuA-115">
          <mxGeometry x="160" y="210" width="120" height="60" as="geometry" />
        </mxCell>
        <mxCell id="K4WIt5_0rDEJ_HHopJuA-126" style="edgeStyle=orthogonalEdgeStyle;rounded=0;orthogonalLoop=1;jettySize=auto;html=1;entryX=0.5;entryY=1;entryDx=0;entryDy=0;strokeColor=light-dark(#0B4D6A,#000000);strokeWidth=8;" edge="1" parent="1" source="K4WIt5_0rDEJ_HHopJuA-125" target="K4WIt5_0rDEJ_HHopJuA-103">
          <mxGeometry relative="1" as="geometry" />
        </mxCell>
        <mxCell id="K4WIt5_0rDEJ_HHopJuA-127" style="edgeStyle=orthogonalEdgeStyle;rounded=0;orthogonalLoop=1;jettySize=auto;html=1;entryX=0.5;entryY=0;entryDx=0;entryDy=0;strokeColor=light-dark(#0B4D6A,#000000);strokeWidth=8;" edge="1" parent="1" source="K4WIt5_0rDEJ_HHopJuA-112" target="K4WIt5_0rDEJ_HHopJuA-115">
          <mxGeometry relative="1" as="geometry" />
        </mxCell>
        <mxCell id="K4WIt5_0rDEJ_HHopJuA-131" style="edgeStyle=orthogonalEdgeStyle;rounded=0;orthogonalLoop=1;jettySize=auto;html=1;entryX=0.5;entryY=1;entryDx=0;entryDy=0;strokeColor=light-dark(#0B4D6A,#000000);strokeWidth=8;" edge="1" parent="1" source="K4WIt5_0rDEJ_HHopJuA-129" target="K4WIt5_0rDEJ_HHopJuA-15">
          <mxGeometry relative="1" as="geometry" />
        </mxCell>
        <mxCell id="K4WIt5_0rDEJ_HHopJuA-111" style="edgeStyle=orthogonalEdgeStyle;rounded=0;orthogonalLoop=1;jettySize=auto;html=1;strokeColor=light-dark(#0B4D6A,#000000);strokeWidth=8;entryX=0.5;entryY=1;entryDx=0;entryDy=0;" edge="1" parent="1" source="K4WIt5_0rDEJ_HHopJuA-108" target="K4WIt5_0rDEJ_HHopJuA-15">
          <mxGeometry relative="1" as="geometry">
            <mxPoint x="330" y="-140" as="targetPoint" />
            <Array as="points">
              <mxPoint x="780" y="-70" />
              <mxPoint x="345" y="-70" />
            </Array>
          </mxGeometry>
        </mxCell>
        <mxCell id="K4WIt5_0rDEJ_HHopJuA-135" style="edgeStyle=orthogonalEdgeStyle;rounded=0;orthogonalLoop=1;jettySize=auto;html=1;entryX=0;entryY=0.5;entryDx=0;entryDy=0;strokeColor=light-dark(#0B4D6A,#000000);strokeWidth=8;" edge="1" parent="1" source="K4WIt5_0rDEJ_HHopJuA-99" target="K4WIt5_0rDEJ_HHopJuA-103">
          <mxGeometry relative="1" as="geometry">
            <Array as="points">
              <mxPoint x="-1050" y="-300" />
              <mxPoint x="-510" y="-300" />
              <mxPoint x="-510" y="415" />
            </Array>
          </mxGeometry>
        </mxCell>
      </root>
    </mxGraphModel>
  </diagram>
</mxfile>
